{
    "accessors": [
        {
            "bufferView": 1,
            "byteOffset": 0,
            "componentType": 5126,
            "count": 260,
            "max": [
                0.9944770932197571,
                0.9961279034614563,
                0.9940503835678101
            ],
            "min": [
                -0.9944769740104675,
                -0.9970700740814209,
                -1.0
            ],
            "name": "accessor_buffer_Cube.006_NORMAL_0",
            "type": "VEC3"
        },
        {
            "bufferView": 2,
            "byteOffset": 0,
            "componentType": 5123,
            "count": 396,
            "max": [
                259
            ],
            "min": [
                0
            ],
            "name": "accessor_buffer_Cube.006_0",
            "type": "SCALAR"
        },
        {
            "bufferView": 0,
            "byteOffset": 0,
            "componentType": 5126,
            "count": 260,
            "max": [
                7.662647247314453,
                1.4016680717468262,
                10.50532341003418
            ],
            "min": [
                -4.019943714141846,
                -1.25919771194458,
                -1.0
            ],
            "name": "accessor_buffer_Cube.006_POSITION_0",
            "type": "VEC3"
        }
    ],
    "asset": {
        "version": "2.0"
    },
    "bufferViews": [
        {
            "buffer": 0,
            "byteLength": 3120,
            "byteOffset": 0,
            "byteStride": 12,
            "name": "bufferView_buffer_Cube.006_POSITION_0",
            "target": 34962
        },
        {
            "buffer": 0,
            "byteLength": 3120,
            "byteOffset": 3120,
            "byteStride": 12,
            "name": "bufferView_buffer_Cube.006_NORMAL_0",
            "target": 34962
        },
        {
            "buffer": 0,
            "byteLength": 796,
            "byteOffset": 6240,
            "name": "bufferView_buffer_Cube.006_0",
            "target": 34963
        }
    ],
    "buffers": [
        {
            "byteLength": 7036,
            "name": "buffer_DeadOak1",
            "uri": "buffer_DeadOak1.bin"
        }
    ],
    "cameras": [
        {
            "name": "Camera",
            "perspective": {
                "aspectRatio": 1.703595982340029,
                "yfov": 0.5033799409866333,
                "zfar": 100.0,
                "znear": 0.10000000149011612
            },
            "type": "perspective"
        }
    ],
    "materials": [
        {
            "emissiveFactor": [
                0.0,
                0.0,
                0.0
            ],
            "name": "DeadOakTreeTrunk",
            "pbrMetallicRoughness": {
                "baseColorFactor": [
                    0.800000011920929,
                    0.800000011920929,
                    0.800000011920929,
                    1.0
                ],
                "metallicFactor": 0.0,
                "roughnessFactor": 1.0
            }
        }
    ],
    "meshes": [
        {
            "name": "Cube.006",
            "primitives": [
                {
                    "attributes": {
                        "NORMAL": 0,
                        "POSITION": 2
                    },
                    "indices": 1,
                    "material": 0,
                    "mode": 4
                }
            ]
        }
    ],
    "nodes": [
        {
            "camera": 0,
            "name": "Camera",
            "rotation": [
                0.483536034822464,
                0.20870360732078552,
                0.33687159419059753,
                0.7804827094078064
            ],
            "scale": [
                1.0,
                1.0,
                1.0
            ],
            "translation": [
                7.481131553649902,
                -6.5076398849487305,
                5.34366512298584
            ]
        },
        {
            "mesh": 0,
            "name": "DeadOak1",
            "rotation": [
                -8.146034247147327e-08,
                0.0,
                0.0,
                1.0
            ],
            "scale": [
                0.5401942729949951,
                0.5401942729949951,
                0.5401942729949951
            ],
            "translation": [
                -8.717308044433594,
                -28.703704833984375,
                0.5715315937995911
            ]
        },
        {
            "name": "Lamp",
            "rotation": [
                0.16907575726509094,
                0.27217137813568115,
                0.7558802962303162,
                0.570947527885437
            ],
            "scale": [
                1.0,
                0.9999999403953552,
                1.0
            ],
            "translation": [
                4.076245307922363,
                1.0054539442062378,
                5.903861999511719
            ]
        },
        {
            "children": [
                1,
                2,
                0
            ],
            "matrix": [
                -1.0,
                0.0,
                0.0,
                0.0,
                0.0,
                0.0,
                1.0,
                0.0,
                0.0,
                1.0,
                0.0,
                0.0,
                0.0,
                0.0,
                0.0,
                1.0
            ],
            "name": "Scene_root"
        }
    ],
    "scene": 0,
    "scenes": [
        {
            "extras": {
                "active_camera": 0,
                "background_color": [
                    0.05087608844041824,
                    0.05087608844041824,
                    0.05087608844041824
                ],
                "frames_per_second": 24
            },
            "name": "Scene",
            "nodes": [
                3
            ]
        }
    ]
}
