{
    "accessors": [
        {
            "bufferView": 0,
            "byteOffset": 0,
            "componentType": 5126,
            "count": 1050,
            "max": [
                2.972075939178467,
                2.9504334926605225,
                10.112374305725098
            ],
            "min": [
                -2.3014204502105713,
                -2.8223326206207275,
                -0.4575430750846863
            ],
            "name": "accessor_buffer_Cylinder.003_POSITION_0",
            "type": "VEC3"
        },
        {
            "bufferView": 1,
            "byteOffset": 0,
            "componentType": 5126,
            "count": 1050,
            "max": [
                0.999359130859375,
                0.999252438545227,
                1.0
            ],
            "min": [
                -0.999252438545227,
                -0.999359130859375,
                -0.9999964833259583
            ],
            "name": "accessor_buffer_Cylinder.003_NORMAL_0",
            "type": "VEC3"
        },
        {
            "bufferView": 2,
            "byteOffset": 0,
            "componentType": 5123,
            "count": 1578,
            "max": [
                1049
            ],
            "min": [
                0
            ],
            "name": "accessor_buffer_Cylinder.003_0",
            "type": "SCALAR"
        }
    ],
    "asset": {
        "version": "2.0"
    },
    "bufferViews": [
        {
            "buffer": 0,
            "byteLength": 12600,
            "byteOffset": 0,
            "byteStride": 12,
            "name": "bufferView_buffer_Cylinder.003_POSITION_0",
            "target": 34962
        },
        {
            "buffer": 0,
            "byteLength": 12600,
            "byteOffset": 12600,
            "byteStride": 12,
            "name": "bufferView_buffer_Cylinder.003_NORMAL_0",
            "target": 34962
        },
        {
            "buffer": 0,
            "byteLength": 3160,
            "byteOffset": 25200,
            "name": "bufferView_buffer_Cylinder.003_0",
            "target": 34963
        }
    ],
    "buffers": [
        {
            "byteLength": 28360,
            "name": "buffer_DeadSpruce1",
            "uri": "buffer_DeadSpruce1.bin"
        }
    ],
    "cameras": [
        {
            "name": "Camera",
            "perspective": {
                "aspectRatio": 1.703595982340029,
                "yfov": 0.5033799409866333,
                "zfar": 100.0,
                "znear": 0.10000000149011612
            },
            "type": "perspective"
        }
    ],
    "materials": [
        {
            "emissiveFactor": [
                0.0,
                0.0,
                0.0
            ],
            "name": "DeadSpruceTreeTrunk",
            "pbrMetallicRoughness": {
                "baseColorFactor": [
                    0.800000011920929,
                    0.800000011920929,
                    0.800000011920929,
                    1.0
                ],
                "metallicFactor": 0.0,
                "roughnessFactor": 1.0
            }
        }
    ],
    "meshes": [
        {
            "name": "Cylinder.003",
            "primitives": [
                {
                    "attributes": {
                        "NORMAL": 1,
                        "POSITION": 0
                    },
                    "indices": 2,
                    "material": 0,
                    "mode": 4
                }
            ]
        }
    ],
    "nodes": [
        {
            "camera": 0,
            "name": "Camera",
            "rotation": [
                0.483536034822464,
                0.20870360732078552,
                0.33687159419059753,
                0.7804827094078064
            ],
            "scale": [
                1.0,
                1.0,
                1.0
            ],
            "translation": [
                7.481131553649902,
                -6.5076398849487305,
                5.34366512298584
            ]
        },
        {
            "mesh": 0,
            "name": "DeadSpruce1",
            "rotation": [
                -8.146034247147327e-08,
                0.0,
                0.0,
                1.0
            ],
            "scale": [
                0.8999999761581421,
                0.8999999761581421,
                1.1544049978256226
            ],
            "translation": [
                -7.772634029388428,
                -0.08516263961791992,
                0.5909318923950195
            ]
        },
        {
            "name": "Lamp",
            "rotation": [
                0.16907575726509094,
                0.27217137813568115,
                0.7558802962303162,
                0.570947527885437
            ],
            "scale": [
                1.0,
                0.9999999403953552,
                1.0
            ],
            "translation": [
                4.076245307922363,
                1.0054539442062378,
                5.903861999511719
            ]
        },
        {
            "children": [
                1,
                2,
                0
            ],
            "matrix": [
                -1.0,
                0.0,
                0.0,
                0.0,
                0.0,
                0.0,
                1.0,
                0.0,
                0.0,
                1.0,
                0.0,
                0.0,
                0.0,
                0.0,
                0.0,
                1.0
            ],
            "name": "Scene_root"
        }
    ],
    "scene": 0,
    "scenes": [
        {
            "extras": {
                "active_camera": 0,
                "background_color": [
                    0.05087608844041824,
                    0.05087608844041824,
                    0.05087608844041824
                ],
                "frames_per_second": 24
            },
            "name": "Scene",
            "nodes": [
                3
            ]
        }
    ]
}
