{
    "accessors": [
        {
            "bufferView": 2,
            "byteOffset": 0,
            "componentType": 5123,
            "count": 420,
            "max": [
                279
            ],
            "min": [
                0
            ],
            "name": "accessor_buffer_Cube.007_0",
            "type": "SCALAR"
        },
        {
            "bufferView": 1,
            "byteOffset": 0,
            "componentType": 5126,
            "count": 280,
            "max": [
                0.9909310340881348,
                0.9874359369277954,
                1.0
            ],
            "min": [
                -0.9890990257263184,
                -0.9739230871200562,
                -1.0
            ],
            "name": "accessor_buffer_Cube.007_NORMAL_0",
            "type": "VEC3"
        },
        {
            "bufferView": 0,
            "byteOffset": 0,
            "componentType": 5126,
            "count": 280,
            "max": [
                3.6913528442382812,
                5.441955089569092,
                28.889902114868164
            ],
            "min": [
                -6.652548789978027,
                -5.522694110870361,
                -1.0
            ],
            "name": "accessor_buffer_Cube.007_POSITION_0",
            "type": "VEC3"
        }
    ],
    "asset": {
        "version": "2.0"
    },
    "bufferViews": [
        {
            "buffer": 0,
            "byteLength": 3360,
            "byteOffset": 0,
            "byteStride": 12,
            "name": "bufferView_buffer_Cube.007_POSITION_0",
            "target": 34962
        },
        {
            "buffer": 0,
            "byteLength": 3360,
            "byteOffset": 3360,
            "byteStride": 12,
            "name": "bufferView_buffer_Cube.007_NORMAL_0",
            "target": 34962
        },
        {
            "buffer": 0,
            "byteLength": 844,
            "byteOffset": 6720,
            "name": "bufferView_buffer_Cube.007_0",
            "target": 34963
        }
    ],
    "buffers": [
        {
            "byteLength": 7564,
            "name": "buffer_DeadOak2",
            "uri": "buffer_DeadOak2.bin"
        }
    ],
    "cameras": [
        {
            "name": "Camera",
            "perspective": {
                "aspectRatio": 1.703595982340029,
                "yfov": 0.5033799409866333,
                "zfar": 100.0,
                "znear": 0.10000000149011612
            },
            "type": "perspective"
        }
    ],
    "materials": [
        {
            "emissiveFactor": [
                0.0,
                0.0,
                0.0
            ],
            "name": "DeadOakTreeTrunk",
            "pbrMetallicRoughness": {
                "baseColorFactor": [
                    0.800000011920929,
                    0.800000011920929,
                    0.800000011920929,
                    1.0
                ],
                "metallicFactor": 0.0,
                "roughnessFactor": 1.0
            }
        }
    ],
    "meshes": [
        {
            "name": "Cube.007",
            "primitives": [
                {
                    "attributes": {
                        "NORMAL": 1,
                        "POSITION": 2
                    },
                    "indices": 0,
                    "material": 0,
                    "mode": 4
                }
            ]
        }
    ],
    "nodes": [
        {
            "camera": 0,
            "name": "Camera",
            "rotation": [
                0.483536034822464,
                0.20870360732078552,
                0.33687159419059753,
                0.7804827094078064
            ],
            "scale": [
                1.0,
                1.0,
                1.0
            ],
            "translation": [
                7.481131553649902,
                -6.5076398849487305,
                5.34366512298584
            ]
        },
        {
            "mesh": 0,
            "name": "DeadOak2",
            "rotation": [
                -8.146034247147327e-08,
                0.0,
                0.0,
                1.0
            ],
            "scale": [
                0.22238850593566895,
                0.22238850593566895,
                0.22238850593566895
            ],
            "translation": [
                -0.03674311935901642,
                -27.802534103393555,
                0.23402032256126404
            ]
        },
        {
            "name": "Lamp",
            "rotation": [
                0.16907575726509094,
                0.27217137813568115,
                0.7558802962303162,
                0.570947527885437
            ],
            "scale": [
                1.0,
                0.9999999403953552,
                1.0
            ],
            "translation": [
                4.076245307922363,
                1.0054539442062378,
                5.903861999511719
            ]
        },
        {
            "children": [
                1,
                2,
                0
            ],
            "matrix": [
                -1.0,
                0.0,
                0.0,
                0.0,
                0.0,
                0.0,
                1.0,
                0.0,
                0.0,
                1.0,
                0.0,
                0.0,
                0.0,
                0.0,
                0.0,
                1.0
            ],
            "name": "Scene_root"
        }
    ],
    "scene": 0,
    "scenes": [
        {
            "extras": {
                "active_camera": 0,
                "background_color": [
                    0.05087608844041824,
                    0.05087608844041824,
                    0.05087608844041824
                ],
                "frames_per_second": 24
            },
            "name": "Scene",
            "nodes": [
                3
            ]
        }
    ]
}
