{
    "accessors": [
        {
            "bufferView": 2,
            "byteOffset": 0,
            "componentType": 5123,
            "count": 1098,
            "max": [
                729
            ],
            "min": [
                0
            ],
            "name": "accessor_buffer_Cylinder.005_0",
            "type": "SCALAR"
        },
        {
            "bufferView": 1,
            "byteOffset": 0,
            "componentType": 5126,
            "count": 730,
            "max": [
                0.999871551990509,
                0.9994328022003174,
                1.0
            ],
            "min": [
                -0.9994328022003174,
                -0.9998716115951538,
                -0.9999966025352478
            ],
            "name": "accessor_buffer_Cylinder.005_NORMAL_0",
            "type": "VEC3"
        },
        {
            "bufferView": 0,
            "byteOffset": 0,
            "componentType": 5126,
            "count": 730,
            "max": [
                1.3704299926757812,
                1.2162773609161377,
                3.734732151031494
            ],
            "min": [
                -0.9892789721488953,
                -1.074250340461731,
                -0.4894399642944336
            ],
            "name": "accessor_buffer_Cylinder.005_POSITION_0",
            "type": "VEC3"
        }
    ],
    "asset": {
        "version": "2.0"
    },
    "bufferViews": [
        {
            "buffer": 0,
            "byteLength": 8760,
            "byteOffset": 0,
            "byteStride": 12,
            "name": "bufferView_buffer_Cylinder.005_POSITION_0",
            "target": 34962
        },
        {
            "buffer": 0,
            "byteLength": 8760,
            "byteOffset": 8760,
            "byteStride": 12,
            "name": "bufferView_buffer_Cylinder.005_NORMAL_0",
            "target": 34962
        },
        {
            "buffer": 0,
            "byteLength": 2200,
            "byteOffset": 17520,
            "name": "bufferView_buffer_Cylinder.005_0",
            "target": 34963
        }
    ],
    "buffers": [
        {
            "byteLength": 19720,
            "name": "buffer_DeadSpruce2",
            "uri": "buffer_DeadSpruce2.bin"
        }
    ],
    "cameras": [
        {
            "name": "Camera",
            "perspective": {
                "aspectRatio": 1.703595982340029,
                "yfov": 0.5033799409866333,
                "zfar": 100.0,
                "znear": 0.10000000149011612
            },
            "type": "perspective"
        }
    ],
    "materials": [
        {
            "emissiveFactor": [
                0.0,
                0.0,
                0.0
            ],
            "name": "DeadSpruceTreeTrunk",
            "pbrMetallicRoughness": {
                "baseColorFactor": [
                    0.800000011920929,
                    0.800000011920929,
                    0.800000011920929,
                    1.0
                ],
                "metallicFactor": 0.0,
                "roughnessFactor": 1.0
            }
        }
    ],
    "meshes": [
        {
            "name": "Cylinder.005",
            "primitives": [
                {
                    "attributes": {
                        "NORMAL": 1,
                        "POSITION": 2
                    },
                    "indices": 0,
                    "material": 0,
                    "mode": 4
                }
            ]
        }
    ],
    "nodes": [
        {
            "camera": 0,
            "name": "Camera",
            "rotation": [
                0.483536034822464,
                0.20870360732078552,
                0.33687159419059753,
                0.7804827094078064
            ],
            "scale": [
                1.0,
                1.0,
                1.0
            ],
            "translation": [
                7.481131553649902,
                -6.5076398849487305,
                5.34366512298584
            ]
        },
        {
            "mesh": 0,
            "name": "DeadSpruce2",
            "rotation": [
                -8.146034247147327e-08,
                0.0,
                0.0,
                1.0
            ],
            "scale": [
                0.8999999761581421,
                0.8999999761581421,
                1.1544049978256226
            ],
            "translation": [
                -0.1833200454711914,
                -0.11580657958984375,
                0.5711920261383057
            ]
        },
        {
            "name": "Lamp",
            "rotation": [
                0.16907575726509094,
                0.27217137813568115,
                0.7558802962303162,
                0.570947527885437
            ],
            "scale": [
                1.0,
                0.9999999403953552,
                1.0
            ],
            "translation": [
                4.076245307922363,
                1.0054539442062378,
                5.903861999511719
            ]
        },
        {
            "children": [
                1,
                2,
                0
            ],
            "matrix": [
                -1.0,
                0.0,
                0.0,
                0.0,
                0.0,
                0.0,
                1.0,
                0.0,
                0.0,
                1.0,
                0.0,
                0.0,
                0.0,
                0.0,
                0.0,
                1.0
            ],
            "name": "Scene_root"
        }
    ],
    "scene": 0,
    "scenes": [
        {
            "extras": {
                "active_camera": 0,
                "background_color": [
                    0.05087608844041824,
                    0.05087608844041824,
                    0.05087608844041824
                ],
                "frames_per_second": 24
            },
            "name": "Scene",
            "nodes": [
                3
            ]
        }
    ]
}
