{
    "accessors": [
        {
            "bufferView": 0,
            "byteOffset": 0,
            "componentType": 5126,
            "count": 1452,
            "max": [
                9.380258560180664,
                5.907948017120361,
                16.748241424560547
            ],
            "min": [
                -8.6797456741333,
                -5.715418338775635,
                -1.0
            ],
            "name": "accessor_buffer_Cube.002_POSITION_0",
            "type": "VEC3"
        },
        {
            "bufferView": 2,
            "byteOffset": 0,
            "componentType": 5123,
            "count": 1200,
            "max": [
                1451
            ],
            "min": [
                1
            ],
            "name": "accessor_buffer_Cube.002_0",
            "type": "SCALAR"
        },
        {
            "bufferView": 3,
            "byteOffset": 0,
            "componentType": 5123,
            "count": 396,
            "max": [
                1443
            ],
            "min": [
                0
            ],
            "name": "accessor_buffer_Cube.002_1",
            "type": "SCALAR"
        },
        {
            "bufferView": 1,
            "byteOffset": 0,
            "componentType": 5126,
            "count": 1452,
            "max": [
                0.9944770932197571,
                0.9961279034614563,
                0.9940503835678101
            ],
            "min": [
                -0.9986645579338074,
                -0.9970700740814209,
                -1.0
            ],
            "name": "accessor_buffer_Cube.002_NORMAL_0",
            "type": "VEC3"
        }
    ],
    "asset": {
        "version": "2.0"
    },
    "bufferViews": [
        {
            "buffer": 0,
            "byteLength": 17424,
            "byteOffset": 0,
            "byteStride": 12,
            "name": "bufferView_buffer_Cube.002_POSITION_0",
            "target": 34962
        },
        {
            "buffer": 0,
            "byteLength": 17424,
            "byteOffset": 17424,
            "byteStride": 12,
            "name": "bufferView_buffer_Cube.002_NORMAL_0",
            "target": 34962
        },
        {
            "buffer": 0,
            "byteLength": 2404,
            "byteOffset": 34848,
            "name": "bufferView_buffer_Cube.002_0",
            "target": 34963
        },
        {
            "buffer": 0,
            "byteLength": 796,
            "byteOffset": 37252,
            "name": "bufferView_buffer_Cube.002_1",
            "target": 34963
        }
    ],
    "buffers": [
        {
            "byteLength": 38048,
            "name": "buffer_OakTree1",
            "uri": "buffer_OakTree1.bin"
        }
    ],
    "cameras": [
        {
            "name": "Camera",
            "perspective": {
                "aspectRatio": 1.703595982340029,
                "yfov": 0.5033799409866333,
                "zfar": 100.0,
                "znear": 0.10000000149011612
            },
            "type": "perspective"
        }
    ],
    "materials": [
        {
            "emissiveFactor": [
                0.0,
                0.0,
                0.0
            ],
            "name": "OakTreeLeaf",
            "pbrMetallicRoughness": {
                "baseColorFactor": [
                    0.800000011920929,
                    0.800000011920929,
                    0.800000011920929,
                    1.0
                ],
                "metallicFactor": 0.0,
                "roughnessFactor": 1.0
            }
        },
        {
            "emissiveFactor": [
                0.0,
                0.0,
                0.0
            ],
            "name": "OakTreeTrunk",
            "pbrMetallicRoughness": {
                "baseColorFactor": [
                    0.800000011920929,
                    0.800000011920929,
                    0.800000011920929,
                    1.0
                ],
                "metallicFactor": 0.0,
                "roughnessFactor": 1.0
            }
        }
    ],
    "meshes": [
        {
            "name": "Cube.002",
            "primitives": [
                {
                    "attributes": {
                        "NORMAL": 3,
                        "POSITION": 0
                    },
                    "indices": 1,
                    "material": 0,
                    "mode": 4
                },
                {
                    "attributes": {
                        "NORMAL": 3,
                        "POSITION": 0
                    },
                    "indices": 2,
                    "material": 1,
                    "mode": 4
                }
            ]
        }
    ],
    "nodes": [
        {
            "camera": 0,
            "name": "Camera",
            "rotation": [
                0.483536034822464,
                0.20870360732078552,
                0.33687159419059753,
                0.7804827094078064
            ],
            "scale": [
                1.0,
                1.0,
                1.0
            ],
            "translation": [
                7.481131553649902,
                -6.5076398849487305,
                5.34366512298584
            ]
        },
        {
            "name": "Lamp",
            "rotation": [
                0.16907575726509094,
                0.27217137813568115,
                0.7558802962303162,
                0.570947527885437
            ],
            "scale": [
                1.0,
                0.9999999403953552,
                1.0
            ],
            "translation": [
                4.076245307922363,
                1.0054539442062378,
                5.903861999511719
            ]
        },
        {
            "mesh": 0,
            "name": "OakTree1",
            "rotation": [
                -8.146034247147327e-08,
                0.0,
                0.0,
                1.0
            ],
            "scale": [
                0.5401942729949951,
                0.5401942729949951,
                0.5401942729949951
            ],
            "translation": [
                -8.717308044433594,
                -16.27048683166504,
                0.5715315937995911
            ]
        },
        {
            "children": [
                2,
                1,
                0
            ],
            "matrix": [
                -1.0,
                0.0,
                0.0,
                0.0,
                0.0,
                0.0,
                1.0,
                0.0,
                0.0,
                1.0,
                0.0,
                0.0,
                0.0,
                0.0,
                0.0,
                1.0
            ],
            "name": "Scene_root"
        }
    ],
    "scene": 0,
    "scenes": [
        {
            "extras": {
                "active_camera": 0,
                "background_color": [
                    0.05087608844041824,
                    0.05087608844041824,
                    0.05087608844041824
                ],
                "frames_per_second": 24
            },
            "name": "Scene",
            "nodes": [
                3
            ]
        }
    ]
}
