{
    "accessors": [
        {
            "bufferView": 0,
            "byteOffset": 0,
            "componentType": 5126,
            "count": 1476,
            "max": [
                8.536543846130371,
                10.68769359588623,
                33.327369689941406
            ],
            "min": [
                -10.672443389892578,
                -9.888215065002441,
                -1.0
            ],
            "name": "accessor_buffer_Cube.004_POSITION_0",
            "type": "VEC3"
        },
        {
            "bufferView": 1,
            "byteOffset": 0,
            "componentType": 5126,
            "count": 1476,
            "max": [
                0.9998359680175781,
                0.9874359369277954,
                1.0
            ],
            "min": [
                -0.9997097849845886,
                -0.9739230871200562,
                -1.0
            ],
            "name": "accessor_buffer_Cube.004_NORMAL_0",
            "type": "VEC3"
        },
        {
            "bufferView": 3,
            "byteOffset": 0,
            "componentType": 5123,
            "count": 420,
            "max": [
                1473
            ],
            "min": [
                26
            ],
            "name": "accessor_buffer_Cube.004_1",
            "type": "SCALAR"
        },
        {
            "bufferView": 2,
            "byteOffset": 0,
            "componentType": 5123,
            "count": 1200,
            "max": [
                1475
            ],
            "min": [
                0
            ],
            "name": "accessor_buffer_Cube.004_0",
            "type": "SCALAR"
        }
    ],
    "asset": {
        "version": "2.0"
    },
    "bufferViews": [
        {
            "buffer": 0,
            "byteLength": 17712,
            "byteOffset": 0,
            "byteStride": 12,
            "name": "bufferView_buffer_Cube.004_POSITION_0",
            "target": 34962
        },
        {
            "buffer": 0,
            "byteLength": 17712,
            "byteOffset": 17712,
            "byteStride": 12,
            "name": "bufferView_buffer_Cube.004_NORMAL_0",
            "target": 34962
        },
        {
            "buffer": 0,
            "byteLength": 2404,
            "byteOffset": 35424,
            "name": "bufferView_buffer_Cube.004_0",
            "target": 34963
        },
        {
            "buffer": 0,
            "byteLength": 844,
            "byteOffset": 37828,
            "name": "bufferView_buffer_Cube.004_1",
            "target": 34963
        }
    ],
    "buffers": [
        {
            "byteLength": 38672,
            "name": "buffer_OakTree2",
            "uri": "buffer_OakTree2.bin"
        }
    ],
    "cameras": [
        {
            "name": "Camera",
            "perspective": {
                "aspectRatio": 1.703595982340029,
                "yfov": 0.5033799409866333,
                "zfar": 100.0,
                "znear": 0.10000000149011612
            },
            "type": "perspective"
        }
    ],
    "materials": [
        {
            "emissiveFactor": [
                0.0,
                0.0,
                0.0
            ],
            "name": "OakTreeLeaf",
            "pbrMetallicRoughness": {
                "baseColorFactor": [
                    0.800000011920929,
                    0.800000011920929,
                    0.800000011920929,
                    1.0
                ],
                "metallicFactor": 0.0,
                "roughnessFactor": 1.0
            }
        },
        {
            "emissiveFactor": [
                0.0,
                0.0,
                0.0
            ],
            "name": "OakTreeTrunk",
            "pbrMetallicRoughness": {
                "baseColorFactor": [
                    0.800000011920929,
                    0.800000011920929,
                    0.800000011920929,
                    1.0
                ],
                "metallicFactor": 0.0,
                "roughnessFactor": 1.0
            }
        }
    ],
    "meshes": [
        {
            "name": "Cube.004",
            "primitives": [
                {
                    "attributes": {
                        "NORMAL": 1,
                        "POSITION": 0
                    },
                    "indices": 3,
                    "material": 0,
                    "mode": 4
                },
                {
                    "attributes": {
                        "NORMAL": 1,
                        "POSITION": 0
                    },
                    "indices": 2,
                    "material": 1,
                    "mode": 4
                }
            ]
        }
    ],
    "nodes": [
        {
            "camera": 0,
            "name": "Camera",
            "rotation": [
                0.483536034822464,
                0.20870360732078552,
                0.33687159419059753,
                0.7804827094078064
            ],
            "scale": [
                1.0,
                1.0,
                1.0
            ],
            "translation": [
                7.481131553649902,
                -6.5076398849487305,
                5.34366512298584
            ]
        },
        {
            "name": "Lamp",
            "rotation": [
                0.16907575726509094,
                0.27217137813568115,
                0.7558802962303162,
                0.570947527885437
            ],
            "scale": [
                1.0,
                0.9999999403953552,
                1.0
            ],
            "translation": [
                4.076245307922363,
                1.0054539442062378,
                5.903861999511719
            ]
        },
        {
            "mesh": 0,
            "name": "OakTree2",
            "rotation": [
                -8.146034247147327e-08,
                0.0,
                0.0,
                1.0
            ],
            "scale": [
                0.22238850593566895,
                0.22238850593566895,
                0.22238850593566895
            ],
            "translation": [
                -0.03674311935901642,
                -16.126407623291016,
                0.23402032256126404
            ]
        },
        {
            "children": [
                2,
                1,
                0
            ],
            "matrix": [
                -1.0,
                0.0,
                0.0,
                0.0,
                0.0,
                0.0,
                1.0,
                0.0,
                0.0,
                1.0,
                0.0,
                0.0,
                0.0,
                0.0,
                0.0,
                1.0
            ],
            "name": "Scene_root"
        }
    ],
    "scene": 0,
    "scenes": [
        {
            "extras": {
                "active_camera": 0,
                "background_color": [
                    0.05087608844041824,
                    0.05087608844041824,
                    0.05087608844041824
                ],
                "frames_per_second": 24
            },
            "name": "Scene",
            "nodes": [
                3
            ]
        }
    ]
}
