{
    "accessors": [
        {
            "bufferView": 1,
            "byteOffset": 0,
            "componentType": 5126,
            "count": 235,
            "max": [
                0.9987608194351196,
                0.9631512761116028,
                1.0
            ],
            "min": [
                -0.9975765943527222,
                -0.9741482138633728,
                -0.9999964833259583
            ],
            "name": "accessor_buffer_Cylinder.001_NORMAL_0",
            "type": "VEC3"
        },
        {
            "bufferView": 2,
            "byteOffset": 0,
            "componentType": 5123,
            "count": 138,
            "max": [
                232
            ],
            "min": [
                0
            ],
            "name": "accessor_buffer_Cylinder.001_0",
            "type": "SCALAR"
        },
        {
            "bufferView": 0,
            "byteOffset": 0,
            "componentType": 5126,
            "count": 235,
            "max": [
                1.1057621240615845,
                0.9447423219680786,
                5.177167892456055
            ],
            "min": [
                -1.0108838081359863,
                -0.9894587397575378,
                -0.38348156213760376
            ],
            "name": "accessor_buffer_Cylinder.001_POSITION_0",
            "type": "VEC3"
        },
        {
            "bufferView": 3,
            "byteOffset": 0,
            "componentType": 5123,
            "count": 240,
            "max": [
                234
            ],
            "min": [
                1
            ],
            "name": "accessor_buffer_Cylinder.001_1",
            "type": "SCALAR"
        }
    ],
    "asset": {
        "version": "2.0"
    },
    "bufferViews": [
        {
            "buffer": 0,
            "byteLength": 2820,
            "byteOffset": 0,
            "byteStride": 12,
            "name": "bufferView_buffer_Cylinder.001_POSITION_0",
            "target": 34962
        },
        {
            "buffer": 0,
            "byteLength": 2820,
            "byteOffset": 2820,
            "byteStride": 12,
            "name": "bufferView_buffer_Cylinder.001_NORMAL_0",
            "target": 34962
        },
        {
            "buffer": 0,
            "byteLength": 280,
            "byteOffset": 5640,
            "name": "bufferView_buffer_Cylinder.001_0",
            "target": 34963
        },
        {
            "buffer": 0,
            "byteLength": 484,
            "byteOffset": 5920,
            "name": "bufferView_buffer_Cylinder.001_1",
            "target": 34963
        }
    ],
    "buffers": [
        {
            "byteLength": 6404,
            "name": "buffer_SpruceTree2",
            "uri": "buffer_SpruceTree2.bin"
        }
    ],
    "cameras": [
        {
            "name": "Camera",
            "perspective": {
                "aspectRatio": 1.703595982340029,
                "yfov": 0.5033799409866333,
                "zfar": 100.0,
                "znear": 0.10000000149011612
            },
            "type": "perspective"
        }
    ],
    "materials": [
        {
            "emissiveFactor": [
                0.0,
                0.0,
                0.0
            ],
            "name": "SpruceTreeLeaf",
            "pbrMetallicRoughness": {
                "baseColorFactor": [
                    0.800000011920929,
                    0.800000011920929,
                    0.800000011920929,
                    1.0
                ],
                "metallicFactor": 0.0,
                "roughnessFactor": 1.0
            }
        },
        {
            "emissiveFactor": [
                0.0,
                0.0,
                0.0
            ],
            "name": "SpruceTreeTrunk",
            "pbrMetallicRoughness": {
                "baseColorFactor": [
                    0.800000011920929,
                    0.800000011920929,
                    0.800000011920929,
                    1.0
                ],
                "metallicFactor": 0.0,
                "roughnessFactor": 1.0
            }
        }
    ],
    "meshes": [
        {
            "name": "Cylinder.001",
            "primitives": [
                {
                    "attributes": {
                        "NORMAL": 0,
                        "POSITION": 2
                    },
                    "indices": 1,
                    "material": 1,
                    "mode": 4
                },
                {
                    "attributes": {
                        "NORMAL": 0,
                        "POSITION": 2
                    },
                    "indices": 3,
                    "material": 0,
                    "mode": 4
                }
            ]
        }
    ],
    "nodes": [
        {
            "camera": 0,
            "name": "Camera",
            "rotation": [
                0.483536034822464,
                0.20870360732078552,
                0.33687159419059753,
                0.7804827094078064
            ],
            "scale": [
                1.0,
                1.0,
                1.0
            ],
            "translation": [
                7.481131553649902,
                -6.5076398849487305,
                5.34366512298584
            ]
        },
        {
            "name": "Lamp",
            "rotation": [
                0.16907575726509094,
                0.27217137813568115,
                0.7558802962303162,
                0.570947527885437
            ],
            "scale": [
                1.0,
                0.9999999403953552,
                1.0
            ],
            "translation": [
                4.076245307922363,
                1.0054539442062378,
                5.903861999511719
            ]
        },
        {
            "mesh": 0,
            "name": "SpruceTree2",
            "rotation": [
                -8.146033536604591e-08,
                0.0,
                0.0,
                1.0
            ],
            "scale": [
                1.0,
                1.0,
                1.0
            ],
            "translation": [
                -0.061308860778808594,
                10.137866973876953,
                0.45925092697143555
            ]
        },
        {
            "children": [
                2,
                1,
                0
            ],
            "matrix": [
                -1.0,
                0.0,
                0.0,
                0.0,
                0.0,
                0.0,
                1.0,
                0.0,
                0.0,
                1.0,
                0.0,
                0.0,
                0.0,
                0.0,
                0.0,
                1.0
            ],
            "name": "Scene_root"
        }
    ],
    "scene": 0,
    "scenes": [
        {
            "extras": {
                "active_camera": 0,
                "background_color": [
                    0.05087608844041824,
                    0.05087608844041824,
                    0.05087608844041824
                ],
                "frames_per_second": 24
            },
            "name": "Scene",
            "nodes": [
                3
            ]
        }
    ]
}
