{
    "accessors": [
        {
            "bufferView": 1,
            "byteOffset": 0,
            "componentType": 5126,
            "count": 307,
            "max": [
                0.9990630745887756,
                0.9685372114181519,
                1.0
            ],
            "min": [
                -0.9691135287284851,
                -0.9964951276779175,
                -0.9999964237213135
            ],
            "name": "accessor_buffer_Cylinder_NORMAL_0",
            "type": "VEC3"
        },
        {
            "bufferView": 2,
            "byteOffset": 0,
            "componentType": 5123,
            "count": 138,
            "max": [
                306
            ],
            "min": [
                2
            ],
            "name": "accessor_buffer_Cylinder_0",
            "type": "SCALAR"
        },
        {
            "bufferView": 0,
            "byteOffset": 0,
            "componentType": 5126,
            "count": 307,
            "max": [
                3.112935781478882,
                2.721550703048706,
                11.626779556274414
            ],
            "min": [
                -2.7878623008728027,
                -2.721550703048706,
                -0.4586822986602783
            ],
            "name": "accessor_buffer_Cylinder_POSITION_0",
            "type": "VEC3"
        },
        {
            "bufferView": 3,
            "byteOffset": 0,
            "componentType": 5123,
            "count": 348,
            "max": [
                303
            ],
            "min": [
                0
            ],
            "name": "accessor_buffer_Cylinder_1",
            "type": "SCALAR"
        }
    ],
    "asset": {
        "version": "2.0"
    },
    "bufferViews": [
        {
            "buffer": 0,
            "byteLength": 3684,
            "byteOffset": 0,
            "byteStride": 12,
            "name": "bufferView_buffer_Cylinder_POSITION_0",
            "target": 34962
        },
        {
            "buffer": 0,
            "byteLength": 3684,
            "byteOffset": 3684,
            "byteStride": 12,
            "name": "bufferView_buffer_Cylinder_NORMAL_0",
            "target": 34962
        },
        {
            "buffer": 0,
            "byteLength": 280,
            "byteOffset": 7368,
            "name": "bufferView_buffer_Cylinder_0",
            "target": 34963
        },
        {
            "buffer": 0,
            "byteLength": 700,
            "byteOffset": 7648,
            "name": "bufferView_buffer_Cylinder_1",
            "target": 34963
        }
    ],
    "buffers": [
        {
            "byteLength": 8348,
            "name": "buffer_SpruceTree1",
            "uri": "buffer_SpruceTree1.bin"
        }
    ],
    "cameras": [
        {
            "name": "Camera",
            "perspective": {
                "aspectRatio": 1.703595982340029,
                "yfov": 0.5033799409866333,
                "zfar": 100.0,
                "znear": 0.10000000149011612
            },
            "type": "perspective"
        }
    ],
    "materials": [
        {
            "emissiveFactor": [
                0.0,
                0.0,
                0.0
            ],
            "name": "SpruceTreeLeaf",
            "pbrMetallicRoughness": {
                "baseColorFactor": [
                    0.800000011920929,
                    0.800000011920929,
                    0.800000011920929,
                    1.0
                ],
                "metallicFactor": 0.0,
                "roughnessFactor": 1.0
            }
        },
        {
            "emissiveFactor": [
                0.0,
                0.0,
                0.0
            ],
            "name": "SpruceTreeTrunk",
            "pbrMetallicRoughness": {
                "baseColorFactor": [
                    0.800000011920929,
                    0.800000011920929,
                    0.800000011920929,
                    1.0
                ],
                "metallicFactor": 0.0,
                "roughnessFactor": 1.0
            }
        }
    ],
    "meshes": [
        {
            "name": "Cylinder",
            "primitives": [
                {
                    "attributes": {
                        "NORMAL": 0,
                        "POSITION": 2
                    },
                    "indices": 1,
                    "material": 1,
                    "mode": 4
                },
                {
                    "attributes": {
                        "NORMAL": 0,
                        "POSITION": 2
                    },
                    "indices": 3,
                    "material": 0,
                    "mode": 4
                }
            ]
        }
    ],
    "nodes": [
        {
            "camera": 0,
            "name": "Camera",
            "rotation": [
                0.483536034822464,
                0.20870360732078552,
                0.33687159419059753,
                0.7804827094078064
            ],
            "scale": [
                1.0,
                1.0,
                1.0
            ],
            "translation": [
                7.481131553649902,
                -6.5076398849487305,
                5.34366512298584
            ]
        },
        {
            "name": "Lamp",
            "rotation": [
                0.16907575726509094,
                0.27217137813568115,
                0.7558802962303162,
                0.570947527885437
            ],
            "scale": [
                1.0,
                0.9999999403953552,
                1.0
            ],
            "translation": [
                4.076245307922363,
                1.0054539442062378,
                5.903861999511719
            ]
        },
        {
            "mesh": 0,
            "name": "SpruceTree1",
            "rotation": [
                -8.146033536604591e-08,
                0.0,
                0.0,
                1.0
            ],
            "scale": [
                1.0,
                1.0,
                1.0
            ],
            "translation": [
                -8.201050758361816,
                10.454567909240723,
                0.45925092697143555
            ]
        },
        {
            "children": [
                2,
                1,
                0
            ],
            "matrix": [
                -1.0,
                0.0,
                0.0,
                0.0,
                0.0,
                0.0,
                1.0,
                0.0,
                0.0,
                1.0,
                0.0,
                0.0,
                0.0,
                0.0,
                0.0,
                1.0
            ],
            "name": "Scene_root"
        }
    ],
    "scene": 0,
    "scenes": [
        {
            "extras": {
                "active_camera": 0,
                "background_color": [
                    0.05087608844041824,
                    0.05087608844041824,
                    0.05087608844041824
                ],
                "frames_per_second": 24
            },
            "name": "Scene",
            "nodes": [
                3
            ]
        }
    ]
}
