{
    "accessors": [
        {
            "bufferView": 6,
            "byteOffset": 0,
            "componentType": 5123,
            "count": 24,
            "max": [
                108
            ],
            "min": [
                2
            ],
            "name": "accessor_buffer_Cube.001_3",
            "type": "SCALAR"
        },
        {
            "bufferView": 2,
            "byteOffset": 0,
            "componentType": 5126,
            "count": 116,
            "max": [
                0.9921050071716309,
                1.0
            ],
            "min": [
                0.0,
                0.022059500217437744
            ],
            "name": "accessor_buffer_Cube.001_TEXCOORD_0_0",
            "type": "VEC2"
        },
        {
            "bufferView": 4,
            "byteOffset": 0,
            "componentType": 5123,
            "count": 6,
            "max": [
                113
            ],
            "min": [
                4
            ],
            "name": "accessor_buffer_Cube.001_1",
            "type": "SCALAR"
        },
        {
            "bufferView": 5,
            "byteOffset": 0,
            "componentType": 5123,
            "count": 72,
            "max": [
                112
            ],
            "min": [
                0
            ],
            "name": "accessor_buffer_Cube.001_2",
            "type": "SCALAR"
        },
        {
            "bufferView": 7,
            "byteOffset": 0,
            "componentType": 5123,
            "count": 30,
            "max": [
                114
            ],
            "min": [
                3
            ],
            "name": "accessor_buffer_Cube.001_4",
            "type": "SCALAR"
        },
        {
            "bufferView": 0,
            "byteOffset": 0,
            "componentType": 5126,
            "count": 116,
            "max": [
                0.9842853546142578,
                1.6458603143692017,
                0.8019046783447266
            ],
            "min": [
                -0.9842853546142578,
                -1.6458603143692017,
                -0.6798484325408936
            ],
            "name": "accessor_buffer_Cube.001_POSITION_0",
            "type": "VEC3"
        },
        {
            "bufferView": 1,
            "byteOffset": 0,
            "componentType": 5126,
            "count": 116,
            "max": [
                1.0,
                1.0,
                1.0
            ],
            "min": [
                -1.0,
                -1.0,
                -1.0
            ],
            "name": "accessor_buffer_Cube.001_NORMAL_0",
            "type": "VEC3"
        },
        {
            "bufferView": 3,
            "byteOffset": 0,
            "componentType": 5123,
            "count": 54,
            "max": [
                115
            ],
            "min": [
                8
            ],
            "name": "accessor_buffer_Cube.001_0",
            "type": "SCALAR"
        }
    ],
    "asset": {
        "version": "2.0"
    },
    "bufferViews": [
        {
            "buffer": 0,
            "byteLength": 1392,
            "byteOffset": 0,
            "byteStride": 12,
            "name": "bufferView_buffer_Cube.001_POSITION_0",
            "target": 34962
        },
        {
            "buffer": 0,
            "byteLength": 1392,
            "byteOffset": 1392,
            "byteStride": 12,
            "name": "bufferView_buffer_Cube.001_NORMAL_0",
            "target": 34962
        },
        {
            "buffer": 0,
            "byteLength": 928,
            "byteOffset": 2784,
            "byteStride": 8,
            "name": "bufferView_buffer_Cube.001_TEXCOORD_0_0",
            "target": 34962
        },
        {
            "buffer": 0,
            "byteLength": 112,
            "byteOffset": 3712,
            "name": "bufferView_buffer_Cube.001_0",
            "target": 34963
        },
        {
            "buffer": 0,
            "byteLength": 16,
            "byteOffset": 3824,
            "name": "bufferView_buffer_Cube.001_1",
            "target": 34963
        },
        {
            "buffer": 0,
            "byteLength": 148,
            "byteOffset": 3840,
            "name": "bufferView_buffer_Cube.001_2",
            "target": 34963
        },
        {
            "buffer": 0,
            "byteLength": 52,
            "byteOffset": 3988,
            "name": "bufferView_buffer_Cube.001_3",
            "target": 34963
        },
        {
            "buffer": 0,
            "byteLength": 64,
            "byteOffset": 4040,
            "name": "bufferView_buffer_Cube.001_4",
            "target": 34963
        }
    ],
    "buffers": [
        {
            "byteLength": 4104,
            "name": "buffer_House1",
            "uri": "buffer_House1.bin"
        }
    ],
    "cameras": [
        {
            "name": "Camera",
            "perspective": {
                "aspectRatio": 1.703595982340029,
                "yfov": 0.5033799409866333,
                "zfar": 100.0,
                "znear": 0.10000000149011612
            },
            "type": "perspective"
        }
    ],
    "materials": [
        {
            "emissiveFactor": [
                0.0,
                0.0,
                0.0
            ],
            "name": "Base House",
            "pbrMetallicRoughness": {
                "baseColorFactor": [
                    0.7237290143966675,
                    0.7237290143966675,
                    0.526699960231781,
                    1.0
                ],
                "metallicFactor": 0.0,
                "roughnessFactor": 1.0
            }
        },
        {
            "emissiveFactor": [
                0.0,
                0.0,
                0.0
            ],
            "name": "Door",
            "pbrMetallicRoughness": {
                "baseColorFactor": [
                    0.21639828383922577,
                    0.09981746971607208,
                    0.010961669497191906,
                    1.0
                ],
                "metallicFactor": 0.0,
                "roughnessFactor": 1.0
            }
        },
        {
            "emissiveFactor": [
                0.0,
                0.0,
                0.0
            ],
            "name": "Low Part House",
            "pbrMetallicRoughness": {
                "baseColorFactor": [
                    0.46726280450820923,
                    0.4620645046234131,
                    0.23691068589687347,
                    1.0
                ],
                "metallicFactor": 0.0,
                "roughnessFactor": 1.0
            }
        },
        {
            "emissiveFactor": [
                0.0,
                0.0,
                0.0
            ],
            "name": "Roof",
            "pbrMetallicRoughness": {
                "baseColorFactor": [
                    0.28122612833976746,
                    0.015505889430642128,
                    0.015505889430642128,
                    1.0
                ],
                "metallicFactor": 0.0,
                "roughnessFactor": 1.0
            }
        },
        {
            "emissiveFactor": [
                0.0,
                0.0,
                0.0
            ],
            "name": "Windows",
            "pbrMetallicRoughness": {
                "baseColorFactor": [
                    0.023645475506782532,
                    0.526699960231781,
                    0.4167965054512024,
                    1.0
                ],
                "metallicFactor": 0.0,
                "roughnessFactor": 1.0
            }
        }
    ],
    "meshes": [
        {
            "name": "Cube.001",
            "primitives": [
                {
                    "attributes": {
                        "NORMAL": 6,
                        "POSITION": 5,
                        "TEXCOORD_0": 1
                    },
                    "indices": 7,
                    "material": 3,
                    "mode": 4
                },
                {
                    "attributes": {
                        "NORMAL": 6,
                        "POSITION": 5,
                        "TEXCOORD_0": 1
                    },
                    "indices": 2,
                    "material": 1,
                    "mode": 4
                },
                {
                    "attributes": {
                        "NORMAL": 6,
                        "POSITION": 5,
                        "TEXCOORD_0": 1
                    },
                    "indices": 3,
                    "material": 4,
                    "mode": 4
                },
                {
                    "attributes": {
                        "NORMAL": 6,
                        "POSITION": 5,
                        "TEXCOORD_0": 1
                    },
                    "indices": 0,
                    "material": 0,
                    "mode": 4
                },
                {
                    "attributes": {
                        "NORMAL": 6,
                        "POSITION": 5,
                        "TEXCOORD_0": 1
                    },
                    "indices": 4,
                    "material": 2,
                    "mode": 4
                }
            ]
        }
    ],
    "nodes": [
        {
            "camera": 0,
            "name": "Camera",
            "rotation": [
                0.483536034822464,
                0.20870360732078552,
                0.33687159419059753,
                0.7804827094078064
            ],
            "scale": [
                1.0,
                1.0,
                1.0
            ],
            "translation": [
                7.481131553649902,
                -6.5076398849487305,
                5.34366512298584
            ]
        },
        {
            "mesh": 0,
            "name": "House1",
            "rotation": [
                -8.146033536604591e-08,
                0.0,
                0.0,
                1.0
            ],
            "scale": [
                1.0,
                1.0,
                1.0
            ],
            "translation": [
                0.0,
                0.0,
                0.0
            ]
        },
        {
            "name": "Lamp",
            "rotation": [
                0.16907575726509094,
                0.27217137813568115,
                0.7558802962303162,
                0.570947527885437
            ],
            "scale": [
                1.0,
                0.9999999403953552,
                1.0
            ],
            "translation": [
                4.076245307922363,
                1.0054539442062378,
                5.903861999511719
            ]
        },
        {
            "children": [
                1,
                2,
                0
            ],
            "matrix": [
                -1.0,
                0.0,
                0.0,
                0.0,
                0.0,
                0.0,
                1.0,
                0.0,
                0.0,
                1.0,
                0.0,
                0.0,
                0.0,
                0.0,
                0.0,
                1.0
            ],
            "name": "Scene_root"
        }
    ],
    "scene": 0,
    "scenes": [
        {
            "extras": {
                "active_camera": 0,
                "background_color": [
                    0.05087608844041824,
                    0.05087608844041824,
                    0.05087608844041824
                ],
                "frames_per_second": 24
            },
            "name": "Scene",
            "nodes": [
                3
            ]
        }
    ]
}
