{
    "accessors": [
        {
            "bufferView": 5,
            "byteOffset": 0,
            "componentType": 5123,
            "count": 78,
            "max": [
                289
            ],
            "min": [
                3
            ],
            "name": "accessor_buffer_Cube.001_3",
            "type": "SCALAR"
        },
        {
            "bufferView": 4,
            "byteOffset": 0,
            "componentType": 5123,
            "count": 6,
            "max": [
                288
            ],
            "min": [
                50
            ],
            "name": "accessor_buffer_Cube.001_2",
            "type": "SCALAR"
        },
        {
            "bufferView": 6,
            "byteOffset": 0,
            "componentType": 5123,
            "count": 360,
            "max": [
                299
            ],
            "min": [
                0
            ],
            "name": "accessor_buffer_Cube.001_4",
            "type": "SCALAR"
        },
        {
            "bufferView": 0,
            "byteOffset": 0,
            "componentType": 5126,
            "count": 300,
            "max": [
                1.245026707649231,
                1.2742239236831665,
                3.13108229637146
            ],
            "min": [
                -1.2593300342559814,
                -1.235743522644043,
                -3.249361276626587
            ],
            "name": "accessor_buffer_Cube.001_POSITION_0",
            "type": "VEC3"
        },
        {
            "bufferView": 1,
            "byteOffset": 0,
            "componentType": 5126,
            "count": 300,
            "max": [
                1.0,
                1.0,
                1.0
            ],
            "min": [
                -1.0,
                -1.0,
                -1.0
            ],
            "name": "accessor_buffer_Cube.001_NORMAL_0",
            "type": "VEC3"
        },
        {
            "bufferView": 3,
            "byteOffset": 0,
            "componentType": 5123,
            "count": 6,
            "max": [
                286
            ],
            "min": [
                138
            ],
            "name": "accessor_buffer_Cube.001_1",
            "type": "SCALAR"
        },
        {
            "bufferView": 2,
            "byteOffset": 0,
            "componentType": 5123,
            "count": 24,
            "max": [
                272
            ],
            "min": [
                14
            ],
            "name": "accessor_buffer_Cube.001_0",
            "type": "SCALAR"
        }
    ],
    "asset": {
        "version": "2.0"
    },
    "bufferViews": [
        {
            "buffer": 0,
            "byteLength": 3600,
            "byteOffset": 0,
            "byteStride": 12,
            "name": "bufferView_buffer_Cube.001_POSITION_0",
            "target": 34962
        },
        {
            "buffer": 0,
            "byteLength": 3600,
            "byteOffset": 3600,
            "byteStride": 12,
            "name": "bufferView_buffer_Cube.001_NORMAL_0",
            "target": 34962
        },
        {
            "buffer": 0,
            "byteLength": 52,
            "byteOffset": 7200,
            "name": "bufferView_buffer_Cube.001_0",
            "target": 34963
        },
        {
            "buffer": 0,
            "byteLength": 16,
            "byteOffset": 7252,
            "name": "bufferView_buffer_Cube.001_1",
            "target": 34963
        },
        {
            "buffer": 0,
            "byteLength": 16,
            "byteOffset": 7268,
            "name": "bufferView_buffer_Cube.001_2",
            "target": 34963
        },
        {
            "buffer": 0,
            "byteLength": 160,
            "byteOffset": 7284,
            "name": "bufferView_buffer_Cube.001_3",
            "target": 34963
        },
        {
            "buffer": 0,
            "byteLength": 724,
            "byteOffset": 7444,
            "name": "bufferView_buffer_Cube.001_4",
            "target": 34963
        }
    ],
    "buffers": [
        {
            "byteLength": 8168,
            "name": "buffer_Skyscraper3",
            "uri": "buffer_Skyscraper3.bin"
        }
    ],
    "cameras": [
        {
            "name": "Camera",
            "perspective": {
                "aspectRatio": 1.703595982340029,
                "yfov": 0.5033799409866333,
                "zfar": 100.0,
                "znear": 0.10000000149011612
            },
            "type": "perspective"
        }
    ],
    "materials": [
        {
            "emissiveFactor": [
                0.0,
                0.0,
                0.0
            ],
            "name": "Base",
            "pbrMetallicRoughness": {
                "baseColorFactor": [
                    0.3429524600505829,
                    0.13461555540561676,
                    0.02185671031475067,
                    1.0
                ],
                "metallicFactor": 0.0,
                "roughnessFactor": 1.0
            }
        },
        {
            "emissiveFactor": [
                0.0,
                0.0,
                0.0
            ],
            "name": "Door",
            "pbrMetallicRoughness": {
                "baseColorFactor": [
                    0.26596125960350037,
                    0.26596125960350037,
                    0.26596125960350037,
                    1.0
                ],
                "metallicFactor": 0.0,
                "roughnessFactor": 1.0
            }
        },
        {
            "emissiveFactor": [
                0.0,
                0.0,
                0.0
            ],
            "name": "Roof",
            "pbrMetallicRoughness": {
                "baseColorFactor": [
                    0.6392822265625,
                    0.4883964955806732,
                    0.5379546284675598,
                    1.0
                ],
                "metallicFactor": 0.0,
                "roughnessFactor": 1.0
            }
        },
        {
            "emissiveFactor": [
                0.0,
                0.0,
                0.0
            ],
            "name": "Roof2",
            "pbrMetallicRoughness": {
                "baseColorFactor": [
                    0.64000004529953,
                    0.4790235459804535,
                    0.3594129681587219,
                    1.0
                ],
                "metallicFactor": 0.0,
                "roughnessFactor": 1.0
            }
        },
        {
            "emissiveFactor": [
                0.0,
                0.0,
                0.0
            ],
            "name": "Windows",
            "pbrMetallicRoughness": {
                "baseColorFactor": [
                    0.023645475506782532,
                    0.526699960231781,
                    0.4167965054512024,
                    1.0
                ],
                "metallicFactor": 0.0,
                "roughnessFactor": 1.0
            }
        }
    ],
    "meshes": [
        {
            "name": "Cube.001",
            "primitives": [
                {
                    "attributes": {
                        "NORMAL": 4,
                        "POSITION": 3
                    },
                    "indices": 6,
                    "material": 3,
                    "mode": 4
                },
                {
                    "attributes": {
                        "NORMAL": 4,
                        "POSITION": 3
                    },
                    "indices": 5,
                    "material": 2,
                    "mode": 4
                },
                {
                    "attributes": {
                        "NORMAL": 4,
                        "POSITION": 3
                    },
                    "indices": 1,
                    "material": 1,
                    "mode": 4
                },
                {
                    "attributes": {
                        "NORMAL": 4,
                        "POSITION": 3
                    },
                    "indices": 0,
                    "material": 0,
                    "mode": 4
                },
                {
                    "attributes": {
                        "NORMAL": 4,
                        "POSITION": 3
                    },
                    "indices": 2,
                    "material": 4,
                    "mode": 4
                }
            ]
        }
    ],
    "nodes": [
        {
            "camera": 0,
            "name": "Camera",
            "rotation": [
                0.483536034822464,
                0.20870360732078552,
                0.33687159419059753,
                0.7804827094078064
            ],
            "scale": [
                1.0,
                1.0,
                1.0
            ],
            "translation": [
                7.481131553649902,
                -6.5076398849487305,
                5.34366512298584
            ]
        },
        {
            "name": "Lamp",
            "rotation": [
                0.16907575726509094,
                0.27217137813568115,
                0.7558802962303162,
                0.570947527885437
            ],
            "scale": [
                1.0,
                0.9999999403953552,
                1.0
            ],
            "translation": [
                4.076245307922363,
                1.0054539442062378,
                5.903861999511719
            ]
        },
        {
            "mesh": 0,
            "name": "Skyscraper3",
            "rotation": [
                -8.146033536604591e-08,
                0.0,
                0.0,
                1.0
            ],
            "scale": [
                1.0,
                1.0,
                1.0
            ],
            "translation": [
                0.0,
                0.0,
                0.0
            ]
        },
        {
            "children": [
                2,
                1,
                0
            ],
            "matrix": [
                -1.0,
                0.0,
                0.0,
                0.0,
                0.0,
                0.0,
                1.0,
                0.0,
                0.0,
                1.0,
                0.0,
                0.0,
                0.0,
                0.0,
                0.0,
                1.0
            ],
            "name": "Scene_root"
        }
    ],
    "scene": 0,
    "scenes": [
        {
            "extras": {
                "active_camera": 0,
                "background_color": [
                    0.05087608844041824,
                    0.05087608844041824,
                    0.05087608844041824
                ],
                "frames_per_second": 24
            },
            "name": "Scene",
            "nodes": [
                3
            ]
        }
    ]
}
