{
    "accessors": [
        {
            "bufferView": 2,
            "byteOffset": 0,
            "componentType": 5123,
            "count": 144,
            "max": [
                85
            ],
            "min": [
                0
            ],
            "name": "accessor_buffer_Cube.002_0",
            "type": "SCALAR"
        },
        {
            "bufferView": 1,
            "byteOffset": 0,
            "componentType": 5126,
            "count": 86,
            "max": [
                0.8944271802902222,
                0.8944272994995117,
                0.44721367955207825
            ],
            "min": [
                -0.8944272398948669,
                -0.8944271802902222,
                -1.0
            ],
            "name": "accessor_buffer_Cube.002_NORMAL_0",
            "type": "VEC3"
        },
        {
            "bufferView": 0,
            "byteOffset": 0,
            "componentType": 5126,
            "count": 86,
            "max": [
                2.123661518096924,
                2.1236610412597656,
                2.1236610412597656
            ],
            "min": [
                -2.123662233352661,
                -2.123662233352661,
                -2.1236612796783447
            ],
            "name": "accessor_buffer_Cube.002_POSITION_0",
            "type": "VEC3"
        }
    ],
    "asset": {
        "version": "2.0"
    },
    "bufferViews": [
        {
            "buffer": 0,
            "byteLength": 1032,
            "byteOffset": 0,
            "byteStride": 12,
            "name": "bufferView_buffer_Cube.002_POSITION_0",
            "target": 34962
        },
        {
            "buffer": 0,
            "byteLength": 1032,
            "byteOffset": 1032,
            "byteStride": 12,
            "name": "bufferView_buffer_Cube.002_NORMAL_0",
            "target": 34962
        },
        {
            "buffer": 0,
            "byteLength": 292,
            "byteOffset": 2064,
            "name": "bufferView_buffer_Cube.002_0",
            "target": 34963
        }
    ],
    "buffers": [
        {
            "byteLength": 2356,
            "name": "buffer_boss_body",
            "uri": "buffer_boss_body.bin"
        }
    ],
    "materials": [
        {
            "emissiveFactor": [
                0.0,
                0.0,
                0.0
            ],
            "name": "Material.001",
            "pbrMetallicRoughness": {
                "baseColorFactor": [
                    0.64000004529953,
                    0.64000004529953,
                    0.64000004529953,
                    1.0
                ],
                "metallicFactor": 0.0,
                "roughnessFactor": 1.0
            }
        }
    ],
    "meshes": [
        {
            "name": "Cube.002",
            "primitives": [
                {
                    "attributes": {
                        "NORMAL": 1,
                        "POSITION": 2
                    },
                    "indices": 0,
                    "material": 0,
                    "mode": 4
                }
            ]
        }
    ],
    "nodes": [
        {
            "mesh": 0,
            "name": "Cube.001",
            "rotation": [
                0.0,
                0.0,
                0.0,
                1.0
            ],
            "scale": [
                1.0,
                1.0,
                1.0
            ],
            "translation": [
                0.0,
                0.0,
                0.0
            ]
        },
        {
            "children": [
                0
            ],
            "matrix": [
                -1.0,
                0.0,
                0.0,
                0.0,
                0.0,
                0.0,
                1.0,
                0.0,
                0.0,
                1.0,
                0.0,
                0.0,
                0.0,
                0.0,
                0.0,
                1.0
            ],
            "name": "Scene_root"
        }
    ],
    "scene": 0,
    "scenes": [
        {
            "extras": {
                "background_color": [
                    0.05087608844041824,
                    0.05087608844041824,
                    0.05087608844041824
                ],
                "frames_per_second": 24
            },
            "name": "Scene",
            "nodes": [
                1
            ]
        }
    ]
}
